<?xml version="1.0" encoding="utf-8"?>
<!-- Generator: Adobe Illustrator 16.0.0, SVG Export Plug-In . SVG Version: 6.00 Build 0)  -->
<!DOCTYPE svg PUBLIC "-//W3C//DTD SVG 1.1//EN" "http://www.w3.org/Graphics/SVG/1.1/DTD/svg11.dtd">
<svg version="1.1" id="레이어_1" xmlns="http://www.w3.org/2000/svg" xmlns:xlink="http://www.w3.org/1999/xlink" x="0px"
	 y="0px" width="240px" height="80px" viewBox="0 0 240 80" style="enable-background:new 0 0 240 80;" xml:space="preserve">
<style type="text/css">
<![CDATA[
	.st0{fill:#009944;stroke:#00913A;stroke-width:0.25;stroke-miterlimit:10;}
	.st1{fill:#DAE000;stroke:#DAE000;stroke-width:0.25;stroke-miterlimit:10;}
	.st2{fill:#2CA339;}
	.st3{fill:none;}
	.st4{fill:#D0D623;}
]]>
</style>
<g>
	<path class="st4" d="M67.168,39.624H40.752V13.209c0-7.295,5.913-13.208,13.208-13.208s13.208,5.913,13.208,13.208
		c7.294,0,13.207,5.913,13.207,13.208S74.462,39.624,67.168,39.624z"/>
	<path class="st4" d="M14.336,39.624h26.416V66.04c0,7.295-5.914,13.208-13.208,13.208s-13.208-5.913-13.208-13.206
		C7.041,66.04,1.128,60.127,1.128,52.832S7.041,39.624,14.336,39.624z"/>
	<path class="st2" d="M40.752,66.04V39.624h26.417c7.294,0,13.207,5.913,13.207,13.208s-5.913,13.208-13.207,13.21
		c0,7.295-5.913,13.206-13.208,13.206C46.664,79.248,40.752,73.337,40.752,66.04z"/>
	<path class="st2" d="M40.752,13.209v26.415H14.336c-7.295,0-13.208-5.913-13.208-13.208s5.913-13.208,13.208-13.208
		C14.336,5.913,20.249,0,27.544,0C34.839,0.001,40.752,5.914,40.752,13.209z"/>
</g>
<g>
	<rect x="82.61" y="4.5" class="st3" width="123.89" height="35.5"/>
	<path class="st0" d="M97.136,15.234c-3.581,0-5.626,2.672-5.626,7.211c0,4.604,1.893,7.314,5.575,7.314
		c3.184,0,4.795-1.458,4.859-3.733h-4.757v-5.063h11.61v3.631c0,7.161-4.91,11.354-11.764,11.354c-7.647,0-12.838-5.115-12.838-13.4
		c0-8.644,5.729-13.503,12.787-13.503c6.189,0,10.958,3.747,11.508,9.002h-7.187C100.87,16.257,99.361,15.234,97.136,15.234z"/>
	<path class="st0" d="M124.75,35.949c-7.161,0-12.736-4.756-12.736-13.452c0-8.746,5.575-13.452,12.736-13.452
		c7.109,0,12.735,4.706,12.735,13.452S131.859,35.949,124.75,35.949z M124.75,15.234c-3.529,0-5.422,2.557-5.422,7.263
		s1.893,7.263,5.422,7.263s5.422-2.557,5.422-7.263S128.279,15.234,124.75,15.234z"/>
	<path class="st0" d="M153.387,35.949c-7.161,0-12.735-4.756-12.735-13.452c0-8.746,5.574-13.452,12.735-13.452
		c7.109,0,12.735,4.706,12.735,13.452S160.496,35.949,153.387,35.949z M153.387,15.234c-3.529,0-5.422,2.557-5.422,7.263
		s1.893,7.263,5.422,7.263s5.422-2.557,5.422-7.263S156.916,15.234,153.387,15.234z"/>
	<path class="st0" d="M169.39,35.591V9.403h9.975c8.081,0,13.145,4.91,13.145,13.094s-5.063,13.094-13.043,13.094H169.39z
		 M179.21,29.556c3.888,0,6.138-1.586,6.138-7.059s-2.25-7.059-6.342-7.059h-2.507v14.117H179.21z"/>
</g>
<g>
	<rect x="138.556" y="39.624" class="st3" width="100.26" height="35.5"/>
	<path class="st1" d="M140.244,44.527h7.109v20.459h10.587v5.729h-17.696V44.527z"/>
	<path class="st1" d="M183.407,44.527v17.288c0,5.983-4.449,9.206-11.304,9.206c-6.904,0-11.303-3.223-11.303-9.206V44.527h7.109
		v16.98c0,1.944,1.585,3.273,4.193,3.273c2.66,0,4.245-1.329,4.245-3.273v-16.98H183.407z"/>
	<path class="st1" d="M204.015,54.348c-0.205-2.379-1.765-3.989-4.501-3.989c-3.581,0-5.524,2.71-5.524,7.263
		c0,4.808,2.008,7.263,5.473,7.263c2.609,0,4.194-1.394,4.553-3.632l7.212,0.052c-0.358,4.45-4.245,9.769-11.918,9.769
		c-7.212,0-12.633-4.743-12.633-13.451c0-8.746,5.575-13.451,12.633-13.451c6.599,0,11.354,3.682,11.918,10.178H204.015z"/>
	<path class="st1" d="M214.442,44.527h7.109v10.588h0.358l7.877-10.588h8.286l-8.849,11.662l9.053,14.525h-8.49l-5.882-9.82
		l-2.354,3.068v6.752h-7.109V44.527z"/>
</g>
<g>
</g>
<g>
</g>
<g>
</g>
<g>
</g>
<g>
</g>
<g>
</g>
</svg>
